<?xml version="1.0" encoding="UTF-8"?>
<svg width="320.57" height="254.11" version="1.1" viewBox="0 0 320.57 254.11" xml:space="preserve" xmlns="http://www.w3.org/2000/svg">
<defs>
<clipPath id="d">
<path d="m137.35 709.76h70.536v-70.35h-70.536v70.35" clip-rule="evenodd"/>
</clipPath>
<clipPath id="a">
<path d="m172.62 639.4-2.41 0.085-2.296 0.198-2.268 0.368-2.183 0.509-2.154 0.651-2.099 0.822-2.126 0.963-2.098 1.131-2.041 1.247-1.899 1.33-1.758 1.443-1.645 1.529-1.53 1.642-1.446 1.756-1.333 1.896-1.247 2.039-1.162 2.095-0.964 2.095-0.794 2.123-0.68 2.151-0.511 2.18-0.34 2.237-0.227 2.321-0.057 2.378 0.057 2.407 0.227 2.293 0.34 2.236 0.511 2.18 0.68 2.151 0.794 2.124 0.964 2.095 1.162 2.094 1.247 2.039 1.333 1.897 1.446 1.755 1.53 1.642 1.645 1.529 1.758 1.444 1.899 1.33 2.041 1.246 2.098 1.16 2.126 0.935 2.099 0.821 2.154 0.679 2.183 0.481 2.268 0.369 2.296 0.197 2.41 0.085 2.382-0.085 2.296-0.197 2.268-0.369 2.183-0.481 2.155-0.679 2.125-0.821 2.099-0.935 2.125-1.16 2.014-1.246 1.898-1.33 1.788-1.444 1.644-1.529 1.529-1.642 1.418-1.755 1.362-1.897 1.248-2.039 1.133-2.094 0.964-2.095 0.823-2.124 0.652-2.151 0.51-2.18 0.367-2.236 0.199-2.293 0.057-2.407-0.057-2.378-0.199-2.321-0.367-2.237-0.51-2.18-0.652-2.151-0.823-2.123-0.964-2.095-1.133-2.095-1.248-2.039-1.362-1.896-1.418-1.756-1.529-1.642-1.644-1.529-1.788-1.443-1.898-1.33-2.014-1.247-2.125-1.131-2.099-0.963-2.125-0.822-2.155-0.651-2.183-0.509-2.268-0.368-2.296-0.198-2.382-0.085" clip-rule="evenodd"/>
</clipPath>
<clipPath id="c">
<path d="m60.779 638.27h79.21v-79.041h-79.21v79.041" clip-rule="evenodd"/>
</clipPath>
<clipPath id="b">
<path d="m120.17 564.55-2.382-1.274-2.353-1.104-2.381-0.906-2.41-0.736-2.466-0.566-2.552-0.396-2.58-0.227-2.693-0.085-2.665 0.085-2.608 0.227-2.524 0.396-2.466 0.566-2.409 0.736-2.382 0.906-2.381 1.104-2.353 1.274-2.297 1.387-2.126 1.529-1.984 1.585-1.843 1.728-1.73 1.84-1.615 1.981-1.503 2.123-1.418 2.293-1.247 2.351-1.106 2.378-0.907 2.378-0.737 2.406-0.567 2.463-0.425 2.519-0.227 2.576-0.085 2.69 0.085 2.689 0.227 2.577 0.425 2.519 0.567 2.463 0.737 2.406 0.907 2.378 1.106 2.351 1.247 2.378 1.418 2.264 1.503 2.123 1.615 1.982 1.73 1.841 1.843 1.726 1.984 1.613 2.126 1.501 2.297 1.415 2.353 1.247 2.381 1.103 2.382 0.906 2.409 0.737 2.466 0.566 2.524 0.396 2.608 0.254 2.665 0.057 2.693-0.057 2.608-0.254 2.524-0.396 2.466-0.566 2.41-0.737 2.381-0.906 2.381-1.103 2.354-1.275 2.296-1.415 2.126-1.473 1.984-1.613 1.843-1.726 1.73-1.841 1.587-1.982 1.531-2.123 1.39-2.293 1.275-2.349 1.106-2.351 0.907-2.378 0.737-2.434 0.567-2.435 0.397-2.519 0.255-2.605 0.057-2.689-0.057-2.662-0.255-2.604-0.397-2.52-0.567-2.434-0.737-2.435-0.907-2.378-1.106-2.349-1.275-2.351-1.39-2.293-1.531-2.123-1.587-1.981-1.73-1.84-1.843-1.728-1.984-1.585-2.126-1.529-2.296-1.387" clip-rule="evenodd"/>
</clipPath>
</defs>
<g transform="matrix(1.3333 0 0 -1.3333 -71.692 989.2)">
<path d="m172.62 632.38h-42.327v84.421h84.624v-84.421z" fill="none" stroke="#231f20" stroke-linejoin="round" stroke-miterlimit="10" stroke-width=".567"/>
<g clip-path="url(#d)">
<g clip-path="url(#a)" fill-rule="evenodd">
<path d="m106.79 692.32 83.605 48.014-83.605-48.014" fill="#5e5b5c"/>
<path d="m106.79 692.32 83.605 48.014 0.283-0.481-83.633-48.014-0.255 0.481" fill="#5e5b5c"/>
<path d="m107.05 691.84 83.633 48.014 0.283-0.482-83.632-48.013-0.284 0.481" fill="#605d5e"/>
<path d="m107.33 691.35 83.632 48.013 0.284-0.481-83.632-48.014-0.284 0.482" fill="#646162"/>
<path d="m107.61 690.87 83.632 48.014 0.283-0.509-83.632-48.014-0.283 0.509" fill="#666364"/>
<path d="m107.9 690.36 83.632 48.014 0.285-0.482-83.633-48.014-0.284 0.482" fill="#696767"/>
<path d="m108.18 689.88 83.633 48.014 0.254-0.509-83.604-47.986-0.283 0.481" fill="#6b6969"/>
<path d="m108.46 689.4 83.604 47.986 0.283-0.482-83.604-48.013-0.283 0.509" fill="#6f6c6d"/>
<path d="m108.75 688.89 83.604 48.013 0.283-0.481-83.603-48.014-0.284 0.482" fill="#737071"/>
<path d="m109.03 688.41 83.603 48.014 0.285-0.509-83.605-47.986-0.283 0.481" fill="#787676"/>
<path d="m109.31 687.93 83.605 47.986 0.284-0.453-83.605-48.014-0.284 0.481" fill="#787676"/>
<path d="m109.6 687.45 83.605 48.014 0.283-0.482-83.605-48.014-0.283 0.482" fill="#7c797a"/>
<path d="m109.88 686.96 83.605 48.014 0.283-0.509-83.604-48.014-0.284 0.509" fill="#7f7d7d"/>
<path d="m110.16 686.46 83.604 48.014 0.283-0.482-83.603-48.013-0.284 0.481" fill="#828081"/>
<path d="m110.45 685.98 83.603 48.013 0.283-0.481-83.603-48.014-0.283 0.482" fill="#848282"/>
<path d="m110.73 685.49 83.603 48.014 0.286-0.509-83.605-48.014-0.284 0.509" fill="#878585"/>
<path d="m111.02 684.98 83.605 48.014 0.283-0.482-83.634-48.013-0.254 0.481" fill="#8a8888"/>
<path d="m111.27 684.5 83.634 48.013 0.283-0.481-83.633-48.014-0.284 0.482" fill="#8d8b8b"/>
<path d="m111.55 684.02 83.633 48.014 0.283-0.509-83.632-48.014-0.284 0.509" fill="#908e8e"/>
<path d="m111.84 683.51 83.632 48.014 0.283-0.482-83.632-48.014-0.283 0.482" fill="#918f90"/>
<path d="m112.12 683.03 83.632 48.014 0.256-0.481-83.604-47.985-0.284 0.452" fill="#949293"/>
<path d="m112.4 682.58 83.604 47.985 0.283-0.481-83.604-48.014-0.283 0.51" fill="#979596"/>
<path d="m112.69 682.07 83.604 48.014 0.284-0.482-83.604-48.013-0.284 0.481" fill="#9a9899"/>
<path d="m112.97 681.59 83.604 48.013 0.283-0.509-83.604-47.985-0.283 0.481" fill="#9c9a9a"/>
<path d="m113.26 681.11 83.604 47.985 0.283-0.482-83.604-48.013-0.283 0.51" fill="#9f9d9d"/>
<path d="m113.54 680.6 83.604 48.013 0.285-0.48-83.605-48.015-0.284 0.482" fill="#a19fa0"/>
<path d="m113.82 680.11 83.605 48.015 0.283-0.51-83.605-47.986-0.283 0.481" fill="#a3a2a2"/>
<path d="m114.1 679.63 83.605 47.986 0.284-0.482-83.605-48.013-0.284 0.509" fill="#a4a3a3"/>
<path d="m114.39 679.12 83.605 48.013 0.283-0.481-83.604-48.014-0.284 0.482" fill="#a7a5a6"/>
<path d="m114.67 678.64 83.604 48.014 0.256-0.481-83.605-48.014-0.255 0.481" fill="#a9a7a8"/>
<path d="m114.93 678.16 83.605 48.014 0.283-0.481-83.605-48.014-0.283 0.481" fill="#aba9aa"/>
<path d="m115.21 677.68 83.605 48.014 0.283-0.481-83.604-48.014-0.284 0.481" fill="#adacac"/>
<path d="m115.5 677.2 83.604 48.014 0.283-0.51-83.604-48.014-0.283 0.51" fill="#aeadad"/>
<path d="m115.78 676.69 83.604 48.014 0.283-0.482-83.603-48.013-0.284 0.481" fill="#b0afaf"/>
<path d="m116.06 676.21 83.603 48.013 0.284-0.481-83.604-48.013-0.283 0.481" fill="#b2b1b1"/>
<path d="m116.34 675.73 83.604 48.013 0.285-0.509-83.605-48.014-0.284 0.51" fill="#b4b3b3"/>
<path d="m116.63 675.22 83.605 48.014 0.283-0.481-83.604-48.015-0.284 0.482" fill="#b5b4b4"/>
<path d="m116.91 674.74 83.604 48.015 0.283-0.482-83.604-48.013-0.283 0.48" fill="#b7b6b6"/>
<path d="m117.2 674.26 83.604 48.013 0.283-0.51-83.604-48.013-0.283 0.51" fill="#b9b8b9"/>
<path d="m117.48 673.74 83.604 48.013 0.256-0.452-83.605-48.014-0.255 0.453" fill="#bcbbbb"/>
<path d="m117.73 673.29 83.605 48.014 0.284-0.51-83.605-47.985-0.284 0.481" fill="#bdbcbc"/>
<path d="m118.02 672.81 83.605 47.985 0.283-0.481-83.605-48.014-0.283 0.51" fill="#bfbebe"/>
<path d="m118.3 672.3 83.605 48.014 0.283-0.481-83.604-48.014-0.284 0.481" fill="#c1c0c0"/>
<path d="m118.58 671.82 83.604 48.014 0.283-0.51-83.603-47.985-0.284 0.481" fill="#c2c1c2"/>
<path d="m118.87 671.34 83.603 47.985 0.283-0.481-83.603-48.014-0.283 0.51" fill="#c4c3c4"/>
<path d="m119.15 670.83 83.603 48.014 0.285-0.482-83.605-48.013-0.283 0.481" fill="#c5c4c4"/>
<path d="m119.44 670.35 83.605 48.013 0.284-0.509-83.605-47.986-0.284 0.482" fill="#c7c6c6"/>
<path d="m119.72 669.87 83.605 47.986 0.283-0.481-83.605-48.014-0.283 0.509" fill="#c9c8c8"/>
<path d="m120 669.36 83.605 48.014 0.283-0.453-83.604-48.014-0.284 0.453" fill="#cbcaca"/>
<path d="m120.29 668.9 83.604 48.014 0.283-0.51-83.604-48.014-0.283 0.51" fill="#cbcbcb"/>
<path d="m120.57 668.39 83.604 48.014 0.284-0.481-83.632-48.014-0.256 0.481" fill="#cdcccc"/>
<path d="m120.82 667.91 83.632 48.014 0.283-0.482-83.632-48.013-0.283 0.481" fill="#cfcece"/>
<path d="m121.11 667.43 83.632 48.013 0.285-0.509-83.633-48.014-0.284 0.51" fill="#d0d0d0"/>
<path d="m121.39 666.92 83.633 48.014 0.283-0.481-83.633-48.014-0.283 0.481" fill="#d1d0d1"/>
<path d="m121.68 666.44 83.633 48.014 0.283-0.482-83.633-48.013-0.283 0.481" fill="#d3d2d2"/>
<path d="m121.96 665.96 83.633 48.013 0.283-0.509-83.632-48.014-0.284 0.51" fill="#d5d4d4"/>
<path d="m122.24 665.45 83.632 48.014 0.256-0.481-83.604-48.014-0.284 0.481" fill="#d7d6d6"/>
<path d="m122.53 664.97 83.604 48.014 0.284-0.482-83.605-48.014-0.283 0.482" fill="#d8d8d8"/>
<path d="m122.81 664.49 83.605 48.014 0.283-0.481-83.604-48.014-0.284 0.481" fill="#d9d8d9"/>
<path d="m123.09 664.01 83.604 48.014 0.283-0.481-83.604-48.014-0.283 0.481" fill="#dbdada"/>
<path d="m123.38 663.52 83.604 48.014 0.283-0.51-83.603-47.985-0.284 0.481" fill="#dddcdd"/>
<path d="m123.66 663.04 83.603 47.985 0.283-0.481-83.603-48.014-0.283 0.51" fill="#dfdede"/>
<path d="m123.94 662.53 83.603 48.014 0.286-0.481-83.606-48.014-0.283 0.481" fill="#e0dfdf"/>
<path d="m124.23 662.05 83.606 48.014 0.283-0.51-83.605-47.986-0.284 0.482" fill="#e1e1e1"/>
<path d="m124.51 661.57 83.605 47.986 0.283-0.481-83.605-48.014-0.283 0.509" fill="#e3e2e2"/>
<path d="m124.79 661.06 83.605 48.014 0.283-0.482-83.604-48.013-0.284 0.481" fill="#e4e4e4"/>
<path d="m125.08 660.58 83.604 48.013 0.283-0.509-83.632-47.986-0.255 0.482" fill="#e5e5e5"/>
<path d="m125.33 660.1 83.632 47.986 0.256-0.453-83.604-48.014-0.284 0.481" fill="#e7e6e6"/>
<path d="m125.62 659.62 83.604 48.014 0.283-0.481-83.604-48.014-0.283 0.481" fill="#e8e8e8"/>
<path d="m125.9 659.14 83.604 48.014 0.284-0.51-83.604-48.014-0.284 0.51" fill="#eae9ea"/>
<path d="m126.18 658.63 83.604 48.014 0.283-0.481-83.604-48.014-0.283 0.481" fill="#ebebeb"/>
<path d="m126.47 658.15 83.604 48.014 0.283-0.482-83.603-48.013-0.284 0.481" fill="#ececec"/>
<path d="m126.75 657.66 83.603 48.013 0.285-0.509-83.605-48.014-0.283 0.51" fill="#eeeded"/>
<path d="m127.03 657.16 83.605 48.014 0.283-0.481-83.604-48.014-0.284 0.481" fill="#efefef"/>
<path d="m127.32 656.67 83.604 48.014 0.284-0.481-83.605-48.014-0.283 0.481" fill="#f1f0f0"/>
<path d="m127.6 656.19 83.605 48.014 0.283-0.51-83.604-48.014-0.284 0.51" fill="#f1f1f1"/>
<path d="m127.88 655.68 83.604 48.014 0.283-0.482-83.604-48.013-0.283 0.481" fill="#f3f2f3"/>
<path d="m128.17 655.2 83.604 48.013 0.256-0.481-83.605-47.985-0.255 0.453" fill="#f4f4f4"/>
<path d="m128.42 654.75 83.605 47.985 0.283-0.481-83.604-48.014-0.284 0.51" fill="#f6f6f6"/>
<path d="m128.71 654.24 83.604 48.014 0.283-0.481-83.604-48.014-0.283 0.481" fill="#f7f6f6"/>
<path d="m128.99 653.76 83.604 48.014 0.283-0.51-83.603-47.985-0.284 0.481" fill="#f8f8f8"/>
<path d="m129.27 653.28 83.603 47.985 0.284-0.481-83.603-48.014-0.284 0.51" fill="#f9f9f9"/>
<path d="m129.56 652.77 83.603 48.014 0.285-0.482-83.605-48.013-0.283 0.481" fill="#fbfafa"/>
<path d="m129.84 652.29 83.605 48.013 0.283-0.509-83.605-47.985-0.283 0.481" fill="#fcfcfc"/>
<path d="m130.12 651.8 83.605 47.985 0.283-0.481-83.604-48.014-0.284 0.51" fill="#fcfcfc"/>
<path d="m130.41 651.3 83.604 48.014 0.283-0.481-83.604-48.014-0.283 0.481" fill="#fdfdfd"/>
<path d="m130.69 650.81 83.604 48.014 0.284-0.482-83.632-48.013-0.256 0.481" fill="#fefefe"/>
<path d="m130.95 650.33 83.632 48.013 0.283-0.481-83.632-48.014-0.283 0.482" fill="#fff"/>
<path d="m131.23 649.85 83.632 48.014 0.285-0.481-83.633-48.014-0.284 0.481" fill="#fefefe"/>
<path d="m131.51 649.37 83.633 48.014 0.254-0.51-83.604-48.014-0.283 0.51" fill="#fdfdfd"/>
<path d="m131.8 648.86 83.604 48.014 0.283-0.481-83.604-48.014-0.283 0.481" fill="#fcfcfc"/>
<path d="m132.08 648.38 83.604 48.014 0.283-0.481-83.603-48.014-0.284 0.481" fill="#fcfcfc"/>
<path d="m132.36 647.9 83.603 48.014 0.285-0.51-83.605-48.014-0.283 0.51" fill="#fbfafa"/>
<path d="m132.65 647.39 83.605 48.014 0.284-0.481-83.605-48.014-0.284 0.481" fill="#f9f9f9"/>
<path d="m132.93 646.91 83.605 48.014 0.283-0.481-83.604-48.014-0.284 0.481" fill="#f8f8f8"/>
<path d="m133.21 646.43 83.604 48.014 0.283-0.51-83.604-48.014-0.283 0.51" fill="#f7f7f7"/>
<path d="m133.5 645.92 83.604 48.014 0.283-0.453-83.603-48.013-0.284 0.452" fill="#f6f6f6"/>
<path d="m133.78 645.46 83.603 48.013 0.283-0.51-83.603-47.985-0.283 0.482" fill="#f4f4f4"/>
<path d="m134.06 644.98 83.603 47.985 0.286-0.481-83.605-48.014-0.284 0.51" fill="#f3f2f3"/>
<path d="m134.35 644.47 83.605 48.014 0.283-0.481-83.605-48.014-0.283 0.481" fill="#f2f2f2"/>
<path d="m134.63 643.99 83.605 48.014 0.283-0.51-83.633-47.986-0.255 0.482" fill="#f1f0f0"/>
<path d="m134.89 643.51 83.633 47.986 0.283-0.481-83.632-48.013-0.284 0.508" fill="#efefef"/>
<path d="m135.17 643 83.632 48.013 0.283-0.481-83.632-48.014-0.283 0.482" fill="#eeeded"/>
<path d="m135.45 642.52 83.632 48.014 0.284-0.51-83.632-47.985-0.284 0.481" fill="#ececec"/>
<path d="m135.74 642.04 83.632 47.985 0.283-0.481-83.632-48.014-0.283 0.51" fill="#ebebeb"/>
<path d="m136.02 641.53 83.632 48.014 0.256-0.453-83.604-48.014-0.284 0.453" fill="#eae9ea"/>
<path d="m136.3 641.08 83.604 48.014 0.283-0.51-83.604-48.014-0.283 0.51" fill="#e8e8e8"/>
<path d="m136.59 640.56 83.604 48.014 0.283-0.481-83.603-48.013-0.284 0.48" fill="#e7e6e6"/>
<path d="m136.87 640.08 83.603 48.013 0.285-0.481-83.605-48.014-0.283 0.482" fill="#e6e5e6"/>
<path d="m137.15 639.6 83.605 48.014 0.283-0.51-83.604-48.014-0.284 0.51" fill="#e4e4e4"/>
<path d="m137.44 639.09 83.604 48.014 0.284-0.481-83.605-48.014-0.283 0.481" fill="#e3e2e2"/>
<path d="m137.72 638.61 83.605 48.014 0.283-0.481-83.604-48.015-0.284 0.482" fill="#e1e1e1"/>
<path d="m138 638.13 83.604 48.015 0.283-0.51-83.604-48.013-0.283 0.508" fill="#e0e0e0"/>
<path d="m138.29 637.62 83.604 48.013 0.283-0.481-83.603-48.014-0.284 0.482" fill="#dfdede"/>
<path d="m138.57 637.14 83.603 48.014 0.283-0.481-83.603-48.014-0.283 0.481" fill="#dddcdd"/>
<path d="m138.86 636.66 83.603 48.014 0.256-0.482-83.604-48.014-0.255 0.482" fill="#dbdada"/>
<path d="m139.11 636.18 83.604 48.014 0.284-0.481-83.604-48.014-0.284 0.481" fill="#d9d8d9"/>
<path d="m139.39 635.7 83.604 48.014 0.283-0.51-83.604-47.986-0.283 0.482" fill="#d8d8d8"/>
<path d="m139.68 635.21 83.604 47.986 0.285-0.481-83.605-48.013-0.284 0.508" fill="#d7d6d6"/>
<path d="m139.96 634.71 83.605 48.013 0.283-0.481-83.605-48.014-0.283 0.482" fill="#d5d4d4"/>
<path d="m140.24 634.22 83.605 48.014 0.283-0.51-83.604-47.985-0.284 0.481" fill="#d3d2d2"/>
<path d="m140.53 633.74 83.604 47.985 0.283-0.481-83.604-48.014-0.283 0.51" fill="#d2d1d2"/>
<path d="m140.81 633.23 83.604 48.014 0.284-0.481-83.604-48.014-0.284 0.481" fill="#d0d0d0"/>
<path d="m141.1 632.75 83.604 48.014 0.283-0.51-83.604-47.985-0.283 0.481" fill="#cfcece"/>
<path d="m141.38 632.27 83.604 47.985 0.256-0.453-83.604-48.013-0.256 0.481" fill="#cdcccc"/>
<path d="m141.63 631.79 83.604 48.013 0.283-0.481-83.604-48.014-0.283 0.482" fill="#cccbcc"/>
<path d="m141.92 631.31 83.604 48.014 0.283-0.51-83.603-48.014-0.284 0.51" fill="#cbcaca"/>
<path d="m142.2 630.8 83.603 48.014 0.283-0.481-83.603-48.014-0.283 0.481" fill="#c9c8c8"/>
<path d="m142.48 630.32 83.603 48.014 0.286-0.481-83.606-48.014-0.283 0.481" fill="#c7c6c6"/>
<path d="m142.77 629.84 83.606 48.014 0.283-0.51-83.605-48.013-0.284 0.509" fill="#c5c4c4"/>
<path d="m143.05 629.33 83.605 48.013 0.283-0.481-83.605-48.014-0.283 0.482" fill="#c4c3c4"/>
<path d="m143.33 628.84 83.605 48.014 0.283-0.481-83.604-48.014-0.284 0.481" fill="#c2c1c2"/>
<path d="m143.62 628.36 83.604 48.014 0.283-0.51-83.604-48.014-0.283 0.51" fill="#c1c0c0"/>
<path d="m143.9 627.85 83.604 48.014 0.284-0.481-83.604-48.014-0.284 0.481" fill="#bfbebe"/>
<path d="m144.18 627.37 83.604 48.014 0.283-0.482-83.632-47.984-0.255 0.452" fill="#bebdbd"/>
<path d="m144.44 626.92 83.632 47.984 0.285-0.481-83.633-48.013-0.284 0.51" fill="#bcbbbb"/>
<path d="m144.72 626.41 83.633 48.013 0.283-0.481-83.633-48.014-0.283 0.482" fill="#b9b8b9"/>
<path d="m145.01 625.93 83.633 48.014 0.283-0.51-83.633-47.985-0.283 0.481" fill="#b7b6b6"/>
<path d="m145.29 625.45 83.633 47.985 0.284-0.481-83.633-48.014-0.284 0.51" fill="#b6b5b5"/>
<path d="m145.57 624.94 83.633 48.014 0.255-0.481-83.604-48.014-0.284 0.481" fill="#b4b3b3"/>
<path d="m145.86 624.46 83.604 48.014 0.284-0.509-83.605-48.014-0.283 0.509" fill="#b2b1b1"/>
<path d="m146.14 623.95 83.605 48.014 0.283-0.482-83.604-48.014-0.284 0.482" fill="#b0afaf"/>
<path d="m146.42 623.47 83.604 48.014 0.283-0.481-83.604-48.014-0.283 0.481" fill="#aeadad"/>
<path d="m146.71 622.98 83.604 48.014 0.283-0.481-83.603-48.014-0.284 0.481" fill="#adacac"/>
<path d="m146.99 622.5 83.603 48.014 0.283-0.482-83.603-48.014-0.283 0.482" fill="#aba9aa"/>
<path d="m147.28 622.02 83.603 48.014 0.286-0.481-83.605-48.013-0.284 0.48" fill="#a9a7a8"/>
<path d="m147.56 621.54 83.605 48.013 0.283-0.509-83.605-48.014-0.283 0.51" fill="#a7a5a6"/>
<path d="m147.84 621.03 83.605 48.014 0.283-0.482-83.605-48.014-0.283 0.482" fill="#a6a4a4"/>
<path d="m148.12 620.55 83.605 48.014 0.283-0.481-83.604-48.014-0.284 0.481" fill="#a3a2a2"/>
<path d="m148.41 620.07 83.604 48.014 0.283-0.51-83.632-48.014-0.255 0.51" fill="#a19fa0"/>
<path d="m148.66 619.56 83.632 48.014 0.284-0.481-83.632-48.014-0.284 0.481" fill="#9f9d9d"/>
<path d="m148.95 619.08 83.632 48.014 0.285-0.509-83.634-47.986-0.283 0.481" fill="#9d9b9c"/>
<path d="m149.23 618.6 83.634 47.986 0.283-0.482-83.633-48.014-0.284 0.51" fill="#9a9899"/>
<path d="m149.52 618.09 83.633 48.014 0.254-0.453-83.604-48.014-0.283 0.453" fill="#979596"/>
<path d="m149.8 617.63 83.604 48.014 0.283-0.509-83.603-48.014-0.284 0.509" fill="#949293"/>
<path d="m150.08 617.12 83.603 48.014 0.285-0.482-83.605-48.014-0.283 0.482" fill="#918f90"/>
<path d="m150.36 616.64 83.605 48.014 0.283-0.481-83.604-48.013-0.284 0.48" fill="#908e8e"/>
<path d="m150.65 616.16 83.604 48.013 0.284-0.509-83.605-48.014-0.283 0.51" fill="#8d8b8b"/>
<path d="m150.93 615.65 83.605 48.014 0.283-0.482-83.604-48.014-0.284 0.482" fill="#8a8888"/>
<path d="m151.22 615.17 83.604 48.014 0.283-0.481-83.604-48.014-0.283 0.481" fill="#878585"/>
<path d="m151.5 614.69 83.604 48.014 0.283-0.51-83.603-48.014-0.284 0.51" fill="#868384"/>
<path d="m151.78 614.18 83.603 48.014 0.285-0.481-83.605-48.013-0.283 0.48" fill="#828081"/>
<path d="m152.07 613.7 83.605 48.013 0.254-0.453-83.604-48.013-0.255 0.453" fill="#7f7d7d"/>
<path d="m152.32 613.25 83.604 48.013 0.283-0.509-83.603-48.014-0.284 0.51" fill="#7c797a"/>
<path d="m152.6 612.74 83.603 48.014 0.284-0.482-83.603-48.014-0.284 0.482" fill="#7a7778"/>
<path d="m152.89 612.26 83.603 48.014 0.285-0.509-83.605-47.986-0.283 0.481" fill="#787676"/>
<path d="m153.17 611.77 83.605 47.986 0.283-0.482-83.605-48.014-0.283 0.51" fill="#737071"/>
<path d="m153.46 611.26 83.605 48.014 0.283-0.481-83.604-48.013-0.284 0.48" fill="#6f6c6d"/>
<path d="m153.74 610.78 83.604 48.013 0.283-0.509-83.604-47.986-0.283 0.482" fill="#6b6969"/>
<path d="m154.02 610.3 83.604 47.986 0.284-0.482-83.604-48.013-0.284 0.509" fill="#696767"/>
<path d="m154.31 609.79 83.604 48.013 0.283-0.481-83.604-48.014-0.283 0.482" fill="#666364"/>
<path d="m154.59 609.31 83.604 48.014 0.285-0.509-83.605-47.986-0.284 0.481" fill="#646162"/>
<path d="m154.87 608.83 83.605 47.986v0.028l-83.633-48.014h0.028" fill="#5e5b5c"/>
</g>
</g>
<path d="m172.68 674.57v53.393" fill="none" stroke="#231f20" stroke-linejoin="round" stroke-miterlimit="10" stroke-width=".453"/>
<path d="m172.68 732.09-1.73-5.181h3.459l-1.729 5.181" fill="#231f20" fill-rule="evenodd"/>
<path d="m130.07 674.57h87.856" fill="none" stroke="#231f20" stroke-linejoin="round" stroke-miterlimit="10" stroke-width=".453"/>
<path d="m222.06 674.57-5.188 1.727v-3.454l5.188 1.727" fill="#231f20" fill-rule="evenodd"/>
<path d="m194.79 636.49-42.27 73.04" fill="none" stroke="#231f20" stroke-linejoin="round" stroke-miterlimit="10" stroke-width=".453"/>
<path d="m150.42 713.15 1.106-5.35 2.976 1.727-4.082 3.623" fill="#231f20" fill-rule="evenodd"/>
<g clip-path="url(#c)">
<g clip-path="url(#b)" fill-rule="evenodd">
<path d="m26.476 618.65 93.867 53.902-93.867-53.902" fill="#aba9aa"/>
<path d="m26.476 618.65 93.867 53.902 0.283-0.453-93.895-53.931-0.255 0.482" fill="#aba9aa"/>
<path d="m26.731 618.17 93.895 53.931 0.284-0.51-93.895-53.902-0.284 0.481" fill="#acabab"/>
<path d="m27.015 617.69 93.895 53.902 0.283-0.481-93.895-53.902-0.283 0.481" fill="#adacac"/>
<path d="m27.298 617.21 93.895 53.902 0.283-0.481-93.895-53.931-0.283 0.51" fill="#aeadad"/>
<path d="m27.581 616.7 93.895 53.931 0.284-0.51-93.895-53.902-0.284 0.481" fill="#afaeae"/>
<path d="m27.865 616.22 93.895 53.902 0.255-0.481-93.867-53.902-0.283 0.481" fill="#b0afaf"/>
<path d="m28.148 615.74 93.867 53.902 0.284-0.481-93.867-53.931-0.284 0.51" fill="#b1b0b0"/>
<path d="m28.432 615.23 93.867 53.931 0.283-0.51-93.867-53.902-0.283 0.481" fill="#b2b1b1"/>
<path d="m28.715 614.75 93.867 53.902 0.284-0.481-93.867-53.903-0.284 0.482" fill="#b3b2b2"/>
<path d="m28.999 614.26 93.867 53.903 0.283-0.481-93.866-53.931-0.284 0.509" fill="#b4b3b3"/>
<path d="m29.283 613.76 93.866 53.931 0.284-0.51-93.867-53.902-0.283 0.481" fill="#b5b4b4"/>
<path d="m29.566 613.28 93.867 53.902 0.283-0.482-93.866-53.901-0.284 0.481" fill="#b6b5b5"/>
<path d="m29.85 612.79 93.866 53.901 0.284-0.509-93.867-53.902-0.283 0.51" fill="#b7b6b6"/>
<path d="m30.133 612.28 93.867 53.902 0.283-0.481-93.867-53.903-0.283 0.482" fill="#b8b7b7"/>
<path d="m30.416 611.8 93.867 53.903 0.284-0.481-93.867-53.903-0.284 0.481" fill="#b9b8b9"/>
<path d="m30.7 611.32 93.867 53.903 0.283-0.51-93.867-53.902-0.283 0.509" fill="#bbbaba"/>
<path d="m30.983 610.81 93.867 53.902 0.284-0.481-93.867-53.902-0.284 0.481" fill="#bcbbbb"/>
<path d="m31.267 610.33 93.867 53.902 0.283-0.481-93.867-53.903-0.283 0.482" fill="#bdbcbc"/>
<path d="m31.55 609.85 93.867 53.903 0.284-0.51-93.867-53.903-0.284 0.51" fill="#bfbebe"/>
<path d="m31.834 609.34 93.867 53.903 0.283-0.482-93.866-53.902-0.284 0.481" fill="#c0bfbf"/>
<path d="m32.118 608.86 93.866 53.902 0.284-0.481-93.896-53.901-0.254 0.48" fill="#c1c0c0"/>
<path d="m32.372 608.38 93.896 53.901 0.283-0.509-93.895-53.902-0.284 0.51" fill="#c2c0c1"/>
<path d="m32.656 607.87 93.895 53.902 0.284-0.481-93.896-53.903-0.283 0.482" fill="#c2c1c2"/>
<path d="m32.939 607.39 93.896 53.903 0.283-0.482-93.895-53.902-0.284 0.481" fill="#c3c2c3"/>
<path d="m33.223 606.9 93.895 53.902 0.284-0.509-93.895-53.903-0.284 0.51" fill="#c4c3c4"/>
<path d="m33.507 606.4 93.895 53.903 0.283-0.481-93.895-53.903-0.283 0.481" fill="#c5c4c4"/>
<path d="m33.79 605.91 93.895 53.903 0.284-0.482-93.895-53.902-0.284 0.481" fill="#c6c5c5"/>
<path d="m34.074 605.43 93.895 53.902 0.283-0.51-93.895-53.902-0.283 0.51" fill="#c7c6c6"/>
<path d="m34.357 604.92 93.895 53.902 0.284-0.481-93.895-53.902-0.284 0.481" fill="#c8c7c7"/>
<path d="m34.641 604.44 93.895 53.902 0.283-0.481-93.895-53.902-0.283 0.481" fill="#c9c8c8"/>
<path d="m34.924 603.96 93.895 53.902 0.284-0.51-93.896-53.902-0.283 0.51" fill="#cac9c9"/>
<path d="m35.207 603.45 93.896 53.902 0.283-0.481-93.895-53.903-0.284 0.482" fill="#cbcaca"/>
<path d="m35.491 602.97 93.895 53.903 0.284-0.481-93.896-53.902-0.283 0.48" fill="#cbcbcb"/>
<path d="m35.774 602.49 93.896 53.902 0.283-0.51-93.895-53.902-0.284 0.51" fill="#cccbcc"/>
<path d="m36.058 601.98 93.895 53.902 0.284-0.481-93.895-53.902-0.284 0.481" fill="#cdcccc"/>
<path d="m36.342 601.5 93.895 53.902 0.283-0.481-93.895-53.931-0.283 0.51" fill="#cecdcd"/>
<path d="m36.625 600.99 93.895 53.931 0.284-0.51-93.895-53.903-0.284 0.482" fill="#d0cfcf"/>
<path d="m36.909 600.51 93.895 53.903 0.283-0.481-93.895-53.902-0.283 0.48" fill="#d0d0d0"/>
<path d="m37.192 600.03 93.895 53.902 0.255-0.482-93.867-53.93-0.283 0.51" fill="#d1d0d1"/>
<path d="m37.475 599.52 93.867 53.93 0.284-0.509-93.867-53.902-0.284 0.481" fill="#d2d1d2"/>
<path d="m37.759 599.04 93.867 53.902 0.284-0.481-93.868-53.903-0.283 0.482" fill="#d3d2d2"/>
<path d="m38.042 598.55 93.868 53.903 0.283-0.482-93.867-53.93-0.284 0.509" fill="#d4d3d3"/>
<path d="m38.326 598.04 93.867 53.93 0.283-0.509-93.866-53.902-0.284 0.481" fill="#d5d4d4"/>
<path d="m38.61 597.56 93.866 53.902 0.284-0.481-93.867-53.902-0.283 0.481" fill="#d6d5d5"/>
<path d="m38.893 597.08 93.867 53.902 0.283-0.481-93.866-53.931-0.284 0.51" fill="#d7d6d6"/>
<path d="m39.177 596.57 93.866 53.931 0.284-0.51-93.867-53.903-0.283 0.482" fill="#d7d7d7"/>
<path d="m39.46 596.09 93.867 53.903 0.283-0.482-93.866-53.902-0.284 0.481" fill="#d8d8d8"/>
<path d="m39.744 595.61 93.866 53.902 0.284-0.481-93.867-53.931-0.283 0.51" fill="#d9d8d9"/>
<path d="m40.027 595.1 93.867 53.931 0.284-0.509-93.868-53.902-0.283 0.48" fill="#dad9da"/>
<path d="m40.31 594.62 93.868 53.902 0.283-0.482-93.867-53.902-0.284 0.482" fill="#dbdada"/>
<path d="m40.594 594.14 93.867 53.902 0.284-0.481-93.868-53.93-0.283 0.509" fill="#dcdbdc"/>
<path d="m40.877 593.63 93.868 53.93 0.283-0.51-93.867-53.902-0.284 0.482" fill="#dddcdd"/>
<path d="m41.161 593.15 93.867 53.902 0.283-0.481-93.866-53.902-0.284 0.481" fill="#deddde"/>
<path d="m41.445 592.66 93.866 53.902 0.284-0.481-93.895-53.93-0.255 0.509" fill="#e0dfdf"/>
<path d="m41.7 592.16 93.895 53.93 0.283-0.509-93.895-53.903-0.283 0.482" fill="#e0e0e0"/>
<path d="m41.983 591.67 93.895 53.903 0.284-0.482-93.895-53.902-0.284 0.481" fill="#e1e1e1"/>
<path d="m42.267 591.19 93.895 53.902 0.283-0.481-93.895-53.931-0.283 0.51" fill="#e2e1e1"/>
<path d="m42.55 590.68 93.895 53.931 0.284-0.51-93.895-53.902-0.284 0.481" fill="#e3e2e2"/>
<path d="m42.834 590.2 93.895 53.902 0.284-0.481-93.896-53.903-0.283 0.482" fill="#e4e3e3"/>
<path d="m43.117 589.72 93.896 53.903 0.283-0.482-93.895-53.929-0.284 0.508" fill="#e4e4e4"/>
<path d="m43.401 589.21 93.895 53.929 0.283-0.509-93.895-53.902-0.283 0.482" fill="#e5e5e5"/>
<path d="m43.684 588.73 93.895 53.902 0.284-0.481-93.895-53.902-0.284 0.481" fill="#e6e5e6"/>
<path d="m43.968 588.25 93.895 53.902 0.283-0.481-93.895-53.931-0.283 0.51" fill="#e7e6e6"/>
<path d="m44.251 587.74 93.895 53.931 0.284-0.51-93.895-53.903-0.284 0.482" fill="#e8e7e7"/>
<path d="m44.535 587.26 93.895 53.903 0.283-0.482-93.895-53.901-0.283 0.48" fill="#e8e8e8"/>
<path d="m44.818 586.78 93.895 53.901 0.284-0.48-93.895-53.931-0.284 0.51" fill="#e9e9e9"/>
<path d="m45.102 586.27 93.895 53.931 0.283-0.51-93.895-53.902-0.283 0.481" fill="#eae9ea"/>
<path d="m45.385 585.79 93.895 53.902 0.284-0.481-93.895-53.903-0.284 0.482" fill="#ebeaea"/>
<path d="m45.669 585.3 93.895 53.903 0.284-0.482-93.896-53.93-0.283 0.509" fill="#ebebeb"/>
<path d="m45.952 584.8 93.896 53.93 0.283-0.51-93.895-53.902-0.284 0.482" fill="#ececec"/>
<path d="m46.236 584.31 93.895 53.902 0.283-0.48-93.895-53.902-0.283 0.48" fill="#ededed"/>
<path d="m46.519 583.83 93.895 53.902 0.255-0.481-93.866-53.931-0.284 0.51" fill="#eee"/>
<path d="m46.803 583.32 93.866 53.931 0.284-0.51-93.867-53.903-0.283 0.482" fill="#efefef"/>
<path d="m47.086 582.84 93.867 53.903 0.284-0.482-93.867-53.902-0.284 0.481" fill="#f0f0f0"/>
<path d="m47.37 582.36 93.867 53.902 0.283-0.481-93.867-53.931-0.283 0.51" fill="#f1f0f0"/>
<path d="m47.653 581.85 93.867 53.931 0.284-0.51-93.867-53.901-0.284 0.48" fill="#f1f1f1"/>
<path d="m47.937 581.37 93.867 53.901 0.283-0.48-93.867-53.903-0.283 0.482" fill="#f2f2f2"/>
<path d="m48.22 580.89 93.867 53.903 0.284-0.482-93.867-53.93-0.284 0.509" fill="#f3f2f3"/>
<path d="m48.504 580.38 93.867 53.93 0.283-0.51-93.867-53.902-0.283 0.482" fill="#f3f3f3"/>
<path d="m48.787 579.9 93.867 53.902 0.283-0.481-93.866-53.902-0.284 0.481" fill="#f4f4f4"/>
<path d="m49.071 579.42 93.866 53.902 0.284-0.481-93.867-53.931-0.283 0.51" fill="#f5f5f5"/>
<path d="m49.354 578.91 93.867 53.931 0.284-0.509-93.867-53.903-0.284 0.481" fill="#f6f6f6"/>
<path d="m49.638 578.42 93.867 53.903 0.283-0.482-93.867-53.902-0.283 0.481" fill="#f7f6f6"/>
<path d="m49.921 577.94 93.867 53.902 0.284-0.509-93.867-53.903-0.284 0.51" fill="#f7f7f7"/>
<path d="m50.205 577.43 93.867 53.903 0.283-0.482-93.867-53.902-0.283 0.481" fill="#f8f8f8"/>
<path d="m50.488 576.95 93.867 53.902 0.284-0.481-93.867-53.903-0.284 0.482" fill="#f9f9f9"/>
<path d="m50.772 576.47 93.867 53.903 0.283-0.51-93.895-53.902-0.255 0.509" fill="#f9f9f9"/>
<path d="m51.027 575.96 93.895 53.902 0.283-0.481-93.895-53.902-0.283 0.481" fill="#fafafa"/>
<path d="m51.31 575.48 93.895 53.902 0.284-0.481-93.895-53.902-0.284 0.481" fill="#fbfbfb"/>
<path d="m51.594 575 93.895 53.902 0.283-0.51-93.895-53.902-0.283 0.51" fill="#fcfcfc"/>
<path d="m51.877 574.49 93.895 53.902 0.284-0.481-93.895-53.903-0.284 0.482" fill="#fcfcfc"/>
<path d="m52.161 574.01 93.895 53.903 0.284-0.482-93.896-53.902-0.283 0.481" fill="#fdfdfd"/>
<path d="m52.444 573.53 93.896 53.902 0.283-0.508-93.895-53.903-0.284 0.509" fill="#fdfdfd"/>
<path d="m52.728 573.02 93.895 53.903 0.284-0.482-93.896-53.902-0.283 0.481" fill="#fefefe"/>
<path d="m53.011 572.54 93.896 53.902 0.283-0.481-93.895-53.903-0.284 0.482" fill="#fefefe"/>
<g fill="#fff">
<path d="m53.295 572.06 93.895 53.903 0.284-0.51-93.895-53.902-0.284 0.509"/>
<path d="m53.579 571.55 93.895 53.902 0.283-0.482-93.895-53.902-0.283 0.482"/>
<path d="m53.862 571.06 93.895 53.902 0.283-0.481-93.895-53.901-0.283 0.48"/>
</g>
<path d="m54.145 570.58 93.895 53.901 0.284-0.509-93.895-53.902-0.284 0.51" fill="#fefefe"/>
<path d="m54.429 570.07 93.895 53.902 0.283-0.481-93.895-53.903-0.283 0.482" fill="#fefefe"/>
<path d="m54.712 569.59 93.895 53.903 0.284-0.482-93.895-53.902-0.284 0.481" fill="#fdfdfd"/>
<path d="m54.996 569.11 93.895 53.902 0.284-0.509-93.896-53.903-0.283 0.51" fill="#fdfdfd"/>
<path d="m55.279 568.6 93.896 53.903 0.283-0.482-93.895-53.902-0.284 0.481" fill="#fcfcfc"/>
<path d="m55.563 568.12 93.895 53.902 0.284-0.48-93.895-53.903-0.284 0.481" fill="#fcfcfc"/>
<path d="m55.847 567.64 93.895 53.903 0.255-0.51-93.867-53.903-0.283 0.51" fill="#fbfbfb"/>
<path d="m56.13 567.13 93.867 53.903 0.283-0.482-93.866-53.902-0.284 0.481" fill="#fbfafa"/>
<path d="m56.414 566.65 93.866 53.902 0.284-0.481-93.867-53.902-0.283 0.481" fill="#fafafa"/>
<path d="m56.697 566.17 93.867 53.902 0.283-0.51-93.867-53.902-0.283 0.51" fill="#f9f9f9"/>
<path d="m56.98 565.66 93.867 53.902 0.284-0.481-93.867-53.902-0.284 0.481" fill="#f9f9f9"/>
<path d="m57.264 565.18 93.867 53.902 0.283-0.481-93.867-53.93-0.283 0.509" fill="#f8f8f8"/>
<path d="m57.547 564.67 93.867 53.93 0.284-0.51-93.867-53.902-0.284 0.482" fill="#f7f7f7"/>
<path d="m57.831 564.18 93.867 53.902 0.283-0.481-93.867-53.902-0.283 0.481" fill="#f7f6f6"/>
<path d="m58.114 563.7 93.867 53.902 0.284-0.481-93.867-53.931-0.284 0.51" fill="#f6f6f6"/>
<path d="m58.398 563.19 93.867 53.931 0.283-0.51-93.866-53.902-0.284 0.481" fill="#f4f4f4"/>
<path d="m58.682 562.71 93.866 53.902 0.284-0.481-93.867-53.902-0.283 0.481" fill="#f3f3f3"/>
<path d="m58.965 562.23 93.867 53.902 0.283-0.481-93.867-53.931-0.283 0.51" fill="#f3f2f3"/>
<path d="m59.248 561.72 93.867 53.931 0.284-0.51-93.867-53.902-0.284 0.481" fill="#f2f2f2"/>
<path d="m59.532 561.24 93.867 53.902 0.283-0.481-93.867-53.903-0.283 0.482" fill="#f1f1f1"/>
<path d="m59.815 560.76 93.867 53.903 0.284-0.482-93.867-53.93-0.284 0.509" fill="#f1f0f0"/>
<path d="m60.099 560.25 93.867 53.93 0.283-0.509-93.895-53.902-0.255 0.481" fill="#f0f0f0"/>
<path d="m60.354 559.77 93.895 53.902 0.284-0.481-93.895-53.902-0.284 0.481" fill="#efefef"/>
<path d="m60.638 559.29 93.895 53.902 0.283-0.481-93.895-53.931-0.283 0.51" fill="#eee"/>
<path d="m60.921 558.78 93.895 53.931 0.284-0.51-93.895-53.903-0.284 0.482" fill="#eeeded"/>
<path d="m61.205 558.3 93.895 53.903 0.283-0.482-93.895-53.902-0.283 0.481" fill="#ededed"/>
<path d="m61.488 557.82 93.895 53.902 0.284-0.481-93.896-53.93-0.283 0.509" fill="#ececec"/>
<path d="m61.771 557.31 93.896 53.93 0.283-0.509-93.895-53.902-0.284 0.481" fill="#ebebeb"/>
<path d="m62.055 556.82 93.895 53.902 0.284-0.481-93.895-53.903-0.284 0.482" fill="#ebeaea"/>
<path d="m62.339 556.34 93.895 53.903 0.283-0.482-93.895-53.93-0.283 0.509" fill="#eae9ea"/>
<path d="m62.622 555.83 93.895 53.93 0.284-0.51-93.895-53.902-0.284 0.482" fill="#e9e9e9"/>
<path d="m62.906 555.35 93.895 53.902 0.283-0.481-93.895-53.902-0.283 0.481" fill="#e8e8e8"/>
<path d="m63.189 554.87 93.895 53.902 0.284-0.481-93.895-53.93-0.284 0.509" fill="#e8e7e7"/>
<path d="m63.473 554.36 93.895 53.93 0.283-0.509-93.895-53.903-0.283 0.482" fill="#e6e5e6"/>
<path d="m63.756 553.88 93.895 53.903 0.284-0.482-93.896-53.902-0.283 0.481" fill="#e5e5e5"/>
<path d="m64.039 553.4 93.896 53.902 0.283-0.481-93.895-53.931-0.284 0.51" fill="#e4e4e4"/>
<path d="m64.323 552.89 93.895 53.931 0.284-0.51-93.896-53.902-0.283 0.481" fill="#e4e3e3"/>
<path d="m64.606 552.41 93.896 53.902 0.283-0.481-93.895-53.902-0.284 0.481" fill="#e3e2e2"/>
<path d="m64.89 551.93 93.895 53.902 0.284-0.481-93.895-53.93-0.284 0.509" fill="#e2e1e1"/>
<path d="m65.174 551.42 93.895 53.93 0.255-0.51-93.867-53.902-0.283 0.482" fill="#e1e1e1"/>
<path d="m65.457 550.94 93.867 53.902 0.283-0.481-93.866-53.902-0.284 0.481" fill="#e0e0e0"/>
<path d="m65.741 550.46 93.866 53.902 0.284-0.481-93.867-53.931-0.283 0.51" fill="#e0dfdf"/>
<path d="m66.024 549.94 93.867 53.931 0.283-0.51-93.866-53.903-0.284 0.482" fill="#dfdede"/>
<path d="m66.308 549.46 93.866 53.903 0.284-0.481-93.867-53.902-0.283 0.48" fill="#deddde"/>
<path d="m66.591 548.98 93.867 53.902 0.283-0.481-93.867-53.931-0.283 0.51" fill="#dddcdd"/>
<path d="m66.874 548.47 93.867 53.931 0.284-0.51-93.867-53.902-0.284 0.481" fill="#dcdbdc"/>
<path d="m67.158 547.99 93.867 53.902 0.284-0.481-93.868-53.903-0.283 0.482" fill="#dbdada"/>
<path d="m67.441 547.51 93.868 53.903 0.283-0.482-93.867-53.93-0.284 0.509" fill="#dad9da"/>
<path d="m67.725 547 93.867 53.93 0.283-0.51-93.866-53.901-0.284 0.481" fill="#d9d8d9"/>
<path d="m68.009 546.52 93.866 53.901 0.284-0.48-93.867-53.902-0.283 0.481" fill="#d8d8d8"/>
<path d="m68.292 546.04 93.867 53.902 0.283-0.481-93.866-53.931-0.284 0.51" fill="#d7d6d6"/>
<path d="m68.576 545.53 93.866 53.931 0.284-0.51-93.867-53.903-0.283 0.482" fill="#d6d5d5"/>
<path d="m68.859 545.05 93.867 53.903 0.283-0.482-93.867-53.902-0.283 0.481" fill="#d5d4d4"/>
<path d="m69.142 544.57 93.867 53.902 0.284-0.481-93.867-53.931-0.284 0.51" fill="#d4d3d3"/>
<path d="m69.426 544.06 93.867 53.931 0.284-0.509-93.896-53.902-0.255 0.48" fill="#d3d2d2"/>
<path d="m69.681 543.58 93.896 53.902 0.283-0.481-93.895-53.903-0.284 0.482" fill="#d2d1d2"/>
<path d="m69.965 543.09 93.895 53.903 0.284-0.482-93.896-53.93-0.283 0.509" fill="#d1d0d1"/>
<path d="m70.248 542.58 93.896 53.93 0.283-0.51-93.895-53.902-0.284 0.482" fill="#d0d0d0"/>
<path d="m70.532 542.1 93.895 53.902 0.283-0.481-93.895-53.902-0.283 0.481" fill="#d0cfcf"/>
<path d="m70.815 541.62 93.895 53.902 0.284-0.51-93.895-53.901-0.284 0.509" fill="#cfcece"/>
<path d="m71.099 541.11 93.895 53.901 0.283-0.48-93.895-53.903-0.283 0.482" fill="#cecdcd"/>
<path d="m71.382 540.63 93.895 53.903 0.284-0.482-93.895-53.902-0.284 0.481" fill="#cdcccc"/>
<path d="m71.666 540.15 93.895 53.902 0.284-0.509-93.896-53.903-0.283 0.51" fill="#cccbcc"/>
<path d="m71.949 539.64 93.896 53.903 0.283-0.482-93.895-53.902-0.284 0.481" fill="#cbcbcb"/>
<path d="m72.233 539.16 93.895 53.902 0.284-0.481-93.896-53.903-0.283 0.482" fill="#cbcaca"/>
<path d="m72.516 538.68 93.896 53.903 0.283-0.509-93.895-53.902-0.284 0.508" fill="#cac9c9"/>
<path d="m72.8 538.17 93.895 53.902 0.283-0.482-93.895-53.902-0.283 0.482" fill="#c9c8c8"/>
<path d="m73.083 537.69 93.895 53.902 0.284-0.481-93.895-53.902-0.284 0.481" fill="#c8c7c7"/>
<path d="m73.367 537.21 93.895 53.902 0.283-0.51-93.895-53.902-0.283 0.51" fill="#c6c5c5"/>
<path d="m73.65 536.7 93.895 53.902 0.284-0.481-93.895-53.903-0.284 0.482" fill="#c5c4c4"/>
<path d="m73.934 536.21 93.895 53.903 0.283-0.482-93.895-53.901-0.283 0.48" fill="#c4c3c4"/>
<path d="m74.217 535.73 93.895 53.901 0.284-0.508-93.895-53.903-0.284 0.51" fill="#c3c2c3"/>
<path d="m74.501 535.22 93.895 53.903 0.255-0.482-93.867-53.902-0.283 0.481" fill="#c2c1c2"/>
<path d="m74.784 534.74 93.867 53.902 0.284-0.481-93.867-53.903-0.284 0.482" fill="#c2c0c1"/>
<path d="m75.068 534.26 93.867 53.903 0.283-0.51-93.867-53.902-0.283 0.509" fill="#c1c0c0"/>
<path d="m75.351 533.75 93.867 53.902 0.283-0.482-93.866-53.902-0.284 0.482" fill="#c0bfbf"/>
<path d="m75.635 533.27 93.866 53.902 0.284-0.48-93.867-53.902-0.283 0.48" fill="#bfbebe"/>
<path d="m75.918 532.79 93.867 53.902 0.283-0.51-93.866-53.902-0.284 0.51" fill="#bebdbd"/>
<path d="m76.202 532.28 93.866 53.902 0.284-0.481-93.867-53.903-0.283 0.482" fill="#bdbcbc"/>
<path d="m76.485 531.8 93.867 53.903 0.284-0.482-93.868-53.902-0.283 0.481" fill="#bcbbbb"/>
<path d="m76.768 531.32 93.868 53.902 0.283-0.509-93.867-53.903-0.284 0.51" fill="#bbbaba"/>
<path d="m77.052 530.81 93.867 53.903 0.284-0.482-93.867-53.901-0.284 0.48" fill="#b9b8b9"/>
<path d="m77.336 530.33 93.867 53.901 0.283-0.48-93.867-53.931-0.283 0.51" fill="#b8b7b7"/>
<path d="m77.619 529.82 93.867 53.931 0.283-0.51-93.866-53.902-0.284 0.481" fill="#b7b6b6"/>
<path d="m77.903 529.34 93.866 53.902 0.284-0.482-93.867-53.902-0.283 0.482" fill="#b6b5b5"/>
<path d="m78.186 528.85 93.867 53.902 0.283-0.481-93.866-53.931-0.284 0.51" fill="#b4b3b3"/>
<path d="m78.47 528.34 93.866 53.931 0.284-0.51-93.867-53.901-0.283 0.48" fill="#b3b2b2"/>
<path d="m78.753 527.86 93.867 53.901 0.284-0.48-93.896-53.903-0.255 0.482" fill="#b2b1b1"/>
<path d="m79.008 527.38 93.896 53.903 0.283-0.482-93.895-53.93-0.284 0.509" fill="#b1b0b0"/>
<path d="m79.292 526.87 93.895 53.93 0.284-0.509-93.896-53.903-0.283 0.482" fill="#b0afaf"/>
<path d="m79.575 526.39 93.896 53.903 0.283-0.482-93.895-53.902-0.284 0.481" fill="#afaeae"/>
<path d="m79.859 525.91 93.895 53.902 0.284-0.481-93.896-53.931-0.283 0.51" fill="#aeadad"/>
<path d="m80.142 525.4 93.896 53.931 0.283-0.51-93.895-53.901-0.284 0.48" fill="#adacac"/>
<path d="m80.426 524.92 93.895 53.901-0.028 0.029-93.867-53.902v-0.028" fill="#aba9aa"/>
</g>
</g>
<path d="m97.663 599.26v75.786" fill="none" stroke="#231f20" stroke-linejoin="round" stroke-miterlimit="10" stroke-width=".453"/>
<path d="m97.634 679.21-1.7-5.181h3.458l-1.758 5.181" fill="#231f20" fill-rule="evenodd"/>
<path d="m97.663 599.26h59.932" fill="none" stroke="#231f20" stroke-linejoin="round" stroke-miterlimit="10" stroke-width=".453"/>
<path d="m161.73 599.29-5.16 1.698v-3.453l5.16 1.755" fill="#231f20" fill-rule="evenodd"/>
<path d="m121.31 558.35-52.788 91.272" fill="none" stroke="#231f20" stroke-linejoin="round" stroke-miterlimit="10" stroke-width=".453"/>
<path d="m66.421 653.22 1.106-5.322 3.005 1.727-4.111 3.595" fill="#231f20" fill-rule="evenodd"/>
<path d="m91.794 621.2c0.482 0 0.879-0.255 1.162-0.737 0.256-0.481 0.397-1.132 0.397-1.981 0-0.85-0.141-1.501-0.397-1.982-0.283-0.481-0.68-0.736-1.162-0.736-0.51 0-0.879 0.255-1.162 0.736s-0.426 1.132-0.426 1.982c0 0.849 0.143 1.5 0.426 1.981 0.283 0.482 0.652 0.737 1.162 0.737zm-0.964-2.35h1.928c-0.056 0.622-0.142 1.075-0.255 1.302-0.17 0.34-0.425 0.538-0.709 0.538-0.312 0-0.567-0.17-0.709-0.538-0.141-0.283-0.226-0.708-0.255-1.302zm1.928-0.595h-1.956c0.028-0.679 0.113-1.161 0.255-1.444 0.198-0.34 0.425-0.537 0.737-0.537s0.539 0.197 0.709 0.537c0.141 0.312 0.227 0.793 0.255 1.444" fill="#231f20" fill-rule="evenodd"/>
<path d="m89.413 613.3c4.933 2.916 8.221 2.916 8.221 2.916" fill="none" stroke="#231f20" stroke-linejoin="round" stroke-miterlimit="10" stroke-width=".85"/>
<path d="m97.719 599.38 16.5 21.147" fill="none" stroke="#231f20" stroke-linejoin="round" stroke-miterlimit="10" stroke-width=".453"/>
<path d="m116.77 623.78-4.564-3.001 2.722-2.123 1.842 5.124" fill="#231f20" fill-rule="evenodd"/>
<path d="m97.719 612.45c3.119 0 7.938-2.945 7.938-2.945m-8.023-10.191 19.136-13.107m-0.283-0.199 13.381 13.363m-45.275-13.249h32.291m-0.255 37.454v-37.738" fill="none" stroke="#231f20" stroke-linejoin="round" stroke-miterlimit="10" stroke-width=".85"/>
<path d="m102.91 619.11c0.483 0 0.879-0.254 1.163-0.735 0.255-0.482 0.397-1.133 0.397-1.982s-0.142-1.501-0.397-1.982c-0.284-0.482-0.68-0.736-1.163-0.736-0.51 0-0.878 0.254-1.162 0.736-0.284 0.481-0.425 1.133-0.425 1.982s0.141 1.5 0.425 1.982c0.284 0.481 0.652 0.735 1.162 0.735zm-0.964-2.35h1.928c-0.057 0.623-0.142 1.077-0.255 1.303-0.17 0.34-0.425 0.538-0.709 0.538-0.311 0-0.567-0.17-0.708-0.538-0.142-0.283-0.227-0.708-0.256-1.303zm1.928-0.593h-1.956c0.028-0.68 0.114-1.161 0.255-1.445 0.199-0.339 0.426-0.538 0.737-0.538 0.312 0 0.539 0.199 0.709 0.538 0.142 0.312 0.227 0.793 0.255 1.445" fill="#231f20" fill-rule="evenodd"/>
<path d="m105.15 617.07v0.51h2.693v-0.595l-2.126-2.718h2.126v-0.509h-2.75v0.566l2.098 2.746h-2.041" fill="#231f20" fill-rule="evenodd"/>
<path d="m107.47 599.32c-1.361-2.208-4.309-3.936-4.309-3.936" fill="none" stroke="#231f20" stroke-linejoin="round" stroke-miterlimit="10" stroke-width=".85"/>
<path d="m110.39 597.36c0.283 0 0.539-0.142 0.822-0.425 0.255-0.34 0.397-0.821 0.397-1.501 0-0.595-0.142-1.103-0.397-1.472-0.283-0.339-0.624-0.509-1.021-0.509v-1.359h-0.567v1.359c-0.425 0-0.765 0.17-1.02 0.509-0.284 0.369-0.425 0.85-0.425 1.472 0 0.651 0.141 1.133 0.425 1.473 0.198 0.255 0.482 0.396 0.822 0.453v-0.538c-0.142-0.057-0.255-0.17-0.397-0.34-0.17-0.255-0.255-0.623-0.255-1.048 0-0.453 0.085-0.82 0.255-1.075 0.17-0.227 0.368-0.34 0.595-0.34v2.321c0 0.68 0.255 1.02 0.766 1.02zm0-0.51c-0.142 0-0.199-0.17-0.199-0.51v-2.321c0.17 0 0.369 0.113 0.567 0.34 0.171 0.226 0.256 0.565 0.256 1.075 0 0.482-0.085 0.85-0.256 1.105-0.141 0.198-0.283 0.311-0.368 0.311" fill="#231f20" fill-rule="evenodd"/>
<path d="m112.32 596.86v0.51h2.693v-0.595l-2.126-2.718h2.126v-0.509h-2.75v0.566l2.098 2.746h-2.041" fill="#231f20" fill-rule="evenodd"/>
<path d="m100.24 622.82c-4.905 0-9.044 0.198-13.297 0.595-4.252 0.425-7.285 0.934-9.752 1.67s-3.572 1.444-3.572 2.293 1.105 1.529 3.572 2.265 5.5 1.274 9.752 1.67c4.253 0.425 8.392 0.623 13.297 0.623 4.904 0 9.071-0.198 13.324-0.623 4.224-0.396 7.286-0.934 9.724-1.67 2.466-0.736 3.572-1.416 3.572-2.265s-1.106-1.557-3.572-2.293c-2.438-0.736-5.5-1.245-9.724-1.67-4.253-0.397-8.42-0.595-13.324-0.595z" fill="none" stroke="#231f20" stroke-linejoin="round" stroke-miterlimit="10" stroke-width=".85"/>
<path d="m83.488 623.27c-0.114 0-0.199 0.028-0.284 0.085s-0.142 0.113-0.198 0.198c-0.057 0.085-0.085 0.17-0.085 0.255 0 0.114 0.028 0.198 0.085 0.283 0.056 0.114 0.113 0.17 0.198 0.226 0.085 0.029 0.17 0.058 0.284 0.058 0.113 0 0.198-0.029 0.283-0.058 0.085-0.056 0.142-0.112 0.199-0.226 0.056-0.085 0.085-0.169 0.085-0.283 0-0.085-0.029-0.17-0.085-0.255-0.057-0.085-0.114-0.141-0.199-0.198s-0.17-0.085-0.283-0.085" fill="#231f20" fill-rule="evenodd"/>
<path d="m83.488 623.27c-0.114 0-0.199 0.028-0.284 0.085s-0.142 0.113-0.198 0.198c-0.057 0.085-0.085 0.17-0.085 0.255 0 0.114 0.028 0.198 0.085 0.283 0.056 0.114 0.113 0.17 0.198 0.226 0.085 0.029 0.17 0.058 0.284 0.058 0.113 0 0.198-0.029 0.283-0.058 0.085-0.056 0.142-0.112 0.199-0.226 0.056-0.085 0.085-0.169 0.085-0.283 0-0.085-0.029-0.17-0.085-0.255-0.057-0.085-0.114-0.141-0.199-0.198s-0.17-0.085-0.283-0.085z" fill="none" stroke="#8a8888" stroke-linejoin="round" stroke-miterlimit="10" stroke-width=".216"/>
<path d="m61.658 563.34 116.72 116.47" fill="none" stroke="#231f20" stroke-linejoin="round" stroke-miterlimit="10" stroke-width=".453"/>
<path d="m181.29 682.75-4.875-2.434 2.438-2.435 2.437 4.869" fill="#231f20" fill-rule="evenodd"/>
<path d="m172.76 709.76h83.236" fill="none" stroke="#231f20" stroke-linejoin="round" stroke-miterlimit="10" stroke-width=".567"/>
<g fill="#231f20" fill-rule="evenodd">
<path d="m94.686 688.1v0.651h3.43v-0.736l-2.722-3.51h2.722v-0.651h-3.543v0.736l2.721 3.51h-2.608"/>
<path d="m170.21 737.5v0.651h3.431v-0.736l-2.722-3.511h2.722v-0.65h-3.544v0.735l2.721 3.511h-2.608"/>
<path d="m251.15 736.31v0.651h3.43v-0.736l-2.721-3.511h2.721v-0.65h-3.543v0.735l2.72 3.511h-2.607"/>
</g>
<path d="m252.34 629.55v97.669" fill="none" stroke="#231f20" stroke-linejoin="round" stroke-miterlimit="10" stroke-width=".453"/>
<path d="m252.34 731.36-1.728-5.181h3.459l-1.731 5.181" fill="#231f20" fill-rule="evenodd"/>
<path d="m252.85 639.55c-0.682 0.056 22.623 0.226 20.752 0.849-2.523 3.425-7.201 11.607-8.279 15.032-0.823 2.407-2.098 8.21-2.465 11.862-0.369 3.624-0.455 7.219-0.455 7.361m-9.582 35.047c-0.68-0.056 22.623-0.226 20.781-0.849-2.523-3.426-7.201-11.607-8.279-15.032-0.823-2.407-2.098-8.21-2.494-11.834-0.37-3.652-0.426-7.248-0.426-7.389" fill="none" stroke="#231f20" stroke-linejoin="round" stroke-miterlimit="10" stroke-width="1.983"/>
<g fill="#231f20">
<g fill-rule="evenodd">
<path d="m167.74 602.38h0.85l-1.587-2.378 1.673-2.52h-0.851l-1.276 1.925-1.304-1.925h-0.851l1.73 2.548-1.588 2.35h0.879l1.163-1.756 1.162 1.756"/>
<path d="m226.66 677.09h0.849l-1.588-2.378 1.674-2.52h-0.851l-1.276 1.925-1.304-1.925h-0.85l1.729 2.547-1.588 2.351h0.879l1.164-1.756 1.162 1.756"/>
<path d="m61.8 561.84-1.928-5.351c-0.227-0.595-0.425-0.963-0.624-1.133-0.17-0.198-0.453-0.283-0.765-0.283h-0.567v0.68h0.425c0.198 0 0.341 0.056 0.454 0.17 0.113 0.085 0.226 0.339 0.369 0.736l0.113 0.368-1.758 4.813h0.737l1.389-3.823 1.39 3.823h0.765"/>
<path d="m66.591 633.12v6.511h1.786c0.652 0 1.162-0.141 1.503-0.481 0.34-0.34 0.51-0.821 0.51-1.443 0-0.652-0.17-1.133-0.51-1.473-0.341-0.34-0.851-0.481-1.503-0.481h-0.992v-2.633zm1.786 5.803h-0.992v-2.462h0.992c0.369 0 0.652 0.113 0.879 0.311 0.198 0.227 0.283 0.538 0.283 0.935 0 0.367-0.085 0.678-0.283 0.905-0.227 0.198-0.51 0.311-0.879 0.311"/>
<path d="m181.38 663.75v6.511h1.785c0.653 0 1.165-0.142 1.504-0.482 0.34-0.339 0.51-0.82 0.51-1.443 0-0.651-0.17-1.133-0.51-1.473-0.339-0.339-0.851-0.481-1.504-0.481h-0.992v-2.632zm1.785 5.803h-0.992v-2.463h0.992c0.37 0 0.653 0.113 0.879 0.311 0.2 0.227 0.286 0.539 0.286 0.935 0 0.368-0.086 0.679-0.286 0.906-0.226 0.198-0.509 0.311-0.879 0.311"/>
</g>
<path d="m186.2 667.86h0.67899v2.4063h-0.67899z"/>
<path d="m188.41 667.86h0.679v2.4063h-0.679z"/>
<g fill-rule="evenodd">
<path d="m102.62 640.79v6.511h0.794v-2.746l2.636 2.746h1.021l-2.92-3.029 3.118-3.482h-1.02l-2.835 3.142v-3.142h-0.794"/>
<path d="m108.97 647.59h0.624c-0.34-0.68-0.595-1.332-0.766-1.982-0.169-0.68-0.254-1.331-0.254-2.011 0-0.678 0.085-1.33 0.254-1.981 0.171-0.68 0.426-1.33 0.766-2.01h-0.624c-0.396 0.708-0.68 1.359-0.878 2.038-0.199 0.652-0.312 1.303-0.312 1.953 0 0.652 0.113 1.303 0.312 1.954 0.198 0.679 0.482 1.359 0.878 2.039"/>
<path d="m113.57 645.75v-0.822c-0.085 0.057-0.17 0.085-0.255 0.114-0.113 0.028-0.227 0.056-0.34 0.056-0.397 0-0.709-0.17-0.936-0.453s-0.312-0.708-0.312-1.274v-2.576h-0.737v4.898h0.737v-0.765c0.142 0.284 0.34 0.51 0.596 0.652 0.226 0.141 0.538 0.226 0.879 0.226h0.17c0.056-0.028 0.113-0.028 0.198-0.056"/>
<path d="m114.5 641.16v0.736h0.851v-0.736l-0.652-1.415h-0.51l0.311 1.415"/>
<path d="m116.57 645.04v0.651h3.43v-0.736l-2.721-3.511h2.721v-0.651h-3.543v0.736l2.721 3.511h-2.608"/>
<path d="m121.02 647.59h0.624c0.397-0.68 0.68-1.36 0.879-2.039 0.198-0.651 0.311-1.302 0.311-1.954 0-0.65-0.113-1.301-0.311-1.953-0.199-0.679-0.482-1.33-0.879-2.038h-0.624c0.34 0.68 0.596 1.33 0.765 2.01 0.17 0.651 0.256 1.303 0.256 1.981 0 0.68-0.086 1.331-0.256 2.011-0.169 0.65-0.425 1.302-0.765 1.982"/>
<path d="m185.41 721.93v1.756h-1.305v0.707h2.1v-2.802c-0.313-0.227-0.653-0.425-1.022-0.538s-0.765-0.17-1.191-0.17c-0.906 0-1.615 0.283-2.155 0.877-0.509 0.595-0.765 1.416-0.765 2.492s0.256 1.897 0.765 2.491c0.54 0.595 1.249 0.906 2.155 0.906 0.398 0 0.765-0.057 1.105-0.17 0.342-0.113 0.653-0.255 0.965-0.453v-0.962c-0.312 0.283-0.623 0.509-0.935 0.651-0.34 0.113-0.68 0.198-1.049 0.198-0.739 0-1.276-0.226-1.616-0.679-0.369-0.425-0.539-1.104-0.539-1.982s0.17-1.529 0.539-1.982c0.34-0.453 0.877-0.679 1.616-0.679 0.283 0 0.539 0.028 0.736 0.084 0.227 0.057 0.426 0.142 0.596 0.255"/>
<path d="m188.72 727.79h0.625c-0.34-0.68-0.596-1.331-0.765-1.982-0.17-0.679-0.256-1.331-0.256-2.01 0-0.68 0.086-1.331 0.256-1.982 0.169-0.679 0.425-1.33 0.765-2.01h-0.625c-0.396 0.708-0.68 1.359-0.879 2.038-0.197 0.652-0.31 1.303-0.31 1.954s0.113 1.302 0.31 1.953c0.199 0.68 0.483 1.359 0.879 2.039"/>
<path d="m193.57 725.89h0.851l-1.588-2.378 1.672-2.52h-0.849l-1.276 1.926-1.304-1.926h-0.85l1.729 2.548-1.588 2.35h0.879l1.162-1.755 1.162 1.755"/>
<path d="m195.7 721.36v0.736h0.851v-0.736l-0.652-1.415h-0.512l0.313 1.415"/>
<path d="m197.79 725.24v0.651h3.432v-0.736l-2.723-3.511h2.723v-0.651h-3.545v0.736l2.723 3.511h-2.61"/>
<path d="m202.22 727.79h0.623c0.397-0.68 0.68-1.359 0.879-2.039 0.199-0.651 0.313-1.302 0.313-1.953s-0.114-1.302-0.313-1.954c-0.199-0.679-0.482-1.33-0.879-2.038h-0.623c0.34 0.68 0.594 1.331 0.766 2.01 0.17 0.651 0.254 1.302 0.254 1.982 0 0.679-0.084 1.331-0.254 2.01-0.172 0.651-0.426 1.302-0.766 1.982"/>
<path d="m276.92 678.73v6.512h0.795v-5.775h2.864v-0.737h-3.659"/>
<path d="m282.48 685.52h0.623c-0.34-0.68-0.594-1.331-0.764-1.982-0.171-0.68-0.255-1.33-0.255-2.01 0-0.679 0.084-1.331 0.255-1.982 0.17-0.679 0.424-1.33 0.764-2.01h-0.623c-0.396 0.708-0.68 1.359-0.879 2.039-0.197 0.651-0.312 1.302-0.312 1.953s0.115 1.302 0.312 1.954c0.199 0.679 0.483 1.358 0.879 2.038"/>
<path d="m284.21 682.97v0.651h3.429v-0.736l-2.722-3.51h2.722v-0.652h-3.545v0.737l2.723 3.51h-2.607"/>
<path d="m288.63 685.52h0.623c0.397-0.68 0.682-1.359 0.879-2.038 0.2-0.652 0.313-1.303 0.313-1.954s-0.113-1.302-0.313-1.953c-0.197-0.68-0.482-1.331-0.879-2.039h-0.623c0.34 0.68 0.596 1.331 0.766 2.01 0.17 0.651 0.254 1.303 0.254 1.982 0 0.68-0.084 1.33-0.254 2.01-0.17 0.651-0.426 1.302-0.766 1.982"/>
</g>
</g>
<path d="m252.08 674.42h28.067" fill="none" stroke="#231f20" stroke-linejoin="round" stroke-miterlimit="10" stroke-width=".453"/>
<g fill="#231f20">
<path d="m285.96 674.45-7.285 2.406v-4.841l7.285 2.435" fill-rule="evenodd"/>
<path d="m144.41 713.52v0.652h3.43v-0.736l-2.721-3.511h2.721v-0.651h-3.544v0.736l2.722 3.51h-2.608" fill-rule="evenodd"/>
<path d="m148.95 713.38h0.68071v2.4063h-0.68071z"/>
<path d="m151.16 713.38h0.68019v2.4063h-0.68019z"/>
<path d="m57.718 658.34v0.651h3.43v-0.736l-2.722-3.51h2.722v-0.651h-3.544v0.736l2.722 3.51h-2.608" fill-rule="evenodd"/>
<path d="m62.253 658.2h0.68066v2.4063h-0.68066z"/>
</g>
<path d="m175.14 639.58h83.234" fill="none" stroke="#231f20" stroke-linejoin="round" stroke-miterlimit="10" stroke-width=".567"/>
</g>
</svg>
